<svg xmlns="http://www.w3.org/2000/svg" width="29.636" height="29.636" viewBox="0 0 29.636 29.636">
  <g id="calendar_1" data-name="calendar 1" transform="translate(0)">
    <path id="Path_13" data-name="Path 13" d="M64.926,239.607h3.087a.926.926,0,0,0,.926-.926v-3.087a.926.926,0,0,0-.926-.926H64.926a.926.926,0,0,0-.926.926v3.087A.927.927,0,0,0,64.926,239.607Zm0,0" transform="translate(-60.295 -221.085)" fill="#f9537b"/>
    <path id="Path_14" data-name="Path 14" d="M64.926,367.607h3.087a.927.927,0,0,0,.926-.926v-3.087a.927.927,0,0,0-.926-.926H64.926a.927.927,0,0,0-.926.926v3.087A.927.927,0,0,0,64.926,367.607Zm0,0" transform="translate(-60.295 -341.676)" fill="#f9537b"/>
    <path id="Path_15" data-name="Path 15" d="M214.258,239.607h3.087a.927.927,0,0,0,.926-.926v-3.087a.926.926,0,0,0-.926-.926h-3.087a.926.926,0,0,0-.926.926v3.087A.926.926,0,0,0,214.258,239.607Zm0,0" transform="translate(-200.984 -221.085)" fill="#f9537b"/>
    <path id="Path_16" data-name="Path 16" d="M214.258,367.607h3.087a.927.927,0,0,0,.926-.926v-3.087a.927.927,0,0,0-.926-.926h-3.087a.926.926,0,0,0-.926.926v3.087A.927.927,0,0,0,214.258,367.607Zm0,0" transform="translate(-200.984 -341.676)" fill="#f9537b"/>
    <path id="Path_17" data-name="Path 17" d="M363.594,239.607h3.087a.927.927,0,0,0,.926-.926v-3.087a.927.927,0,0,0-.926-.926h-3.087a.927.927,0,0,0-.926.926v3.087A.927.927,0,0,0,363.594,239.607Zm0,0" transform="translate(-341.676 -221.085)" fill="#f9537b"/>
    <path id="Path_18" data-name="Path 18" d="M25.931,3.7H24.7V1.235A1.235,1.235,0,0,0,23.462,0H22.227a1.235,1.235,0,0,0-1.235,1.235V3.7H8.644V1.235A1.235,1.235,0,0,0,7.409,0H6.174A1.235,1.235,0,0,0,4.939,1.235V3.7H3.7A3.709,3.709,0,0,0,0,7.409V25.931a3.709,3.709,0,0,0,3.7,3.7H25.931a3.709,3.709,0,0,0,3.7-3.7V7.409a3.709,3.709,0,0,0-3.7-3.7Zm1.235,22.227a1.237,1.237,0,0,1-1.235,1.235H3.7A1.237,1.237,0,0,1,2.47,25.931V12.4h24.7Zm0,0" transform="translate(0)" fill="#f9537b"/>
  </g>
</svg>
