<svg xmlns="http://www.w3.org/2000/svg" width="43.04" height="21.52" viewBox="0 0 43.04 21.52">
  <g id="change-password" transform="translate(0 -7)">
    <path id="Path_545" data-name="Path 545" d="M21.066,10.587a1.793,1.793,0,0,0-2.45-.656l-1.969,1.137V8.793a1.793,1.793,0,1,0-3.587,0v2.274L11.092,9.93A1.793,1.793,0,0,0,9.3,13.036l1.969,1.137L9.3,15.31a1.793,1.793,0,1,0,1.793,3.106l1.969-1.137v2.274a1.793,1.793,0,1,0,3.587,0V17.279l1.969,1.137A1.793,1.793,0,1,0,20.41,15.31l-1.969-1.137,1.969-1.137a1.794,1.794,0,0,0,.656-2.45Z" transform="translate(6.665 0)" fill="#ff9500"/>
    <path id="Path_546" data-name="Path 546" d="M12.664,10.587a1.792,1.792,0,0,0-2.45-.656L8.246,11.067V8.793a1.793,1.793,0,1,0-3.587,0v2.274L2.69,9.93A1.793,1.793,0,0,0,.9,13.036l1.969,1.137L.9,15.31A1.793,1.793,0,1,0,2.69,18.416l1.969-1.137v2.274a1.793,1.793,0,1,0,3.587,0V17.279l1.969,1.137a1.793,1.793,0,1,0,1.793-3.106l-1.969-1.137,1.969-1.137A1.794,1.794,0,0,0,12.664,10.587Z" transform="translate(0 0)" fill="#ff9500"/>
    <path id="Path_547" data-name="Path 547" d="M18.6,18.657a1.779,1.779,0,0,0,.895-.24l1.969-1.137v2.274a1.793,1.793,0,0,0,3.587,0V17.279l1.969,1.137a1.793,1.793,0,0,0,1.793-3.106l-1.969-1.137,1.969-1.137A1.793,1.793,0,0,0,27.019,9.93L25.05,11.067V8.793a1.793,1.793,0,1,0-3.587,0v2.274L19.495,9.93A1.793,1.793,0,0,0,17.7,13.036l1.969,1.137L17.7,15.31a1.793,1.793,0,0,0,.9,3.346Z" transform="translate(13.33 0)" fill="#ff9500"/>
    <path id="Path_548" data-name="Path 548" d="M10.76,17H1.793a1.793,1.793,0,1,0,0,3.587H10.76a1.793,1.793,0,1,0,0-3.587Z" transform="translate(0 7.933)" fill="#ff9500"/>
    <path id="Path_549" data-name="Path 549" d="M19.26,17H10.293a1.793,1.793,0,1,0,0,3.587H19.26a1.793,1.793,0,1,0,0-3.587Z" transform="translate(6.743 7.933)" fill="#ff9500"/>
    <path id="Path_550" data-name="Path 550" d="M27.76,17H18.793a1.793,1.793,0,1,0,0,3.587H27.76a1.793,1.793,0,0,0,0-3.587Z" transform="translate(13.486 7.933)" fill="#ff9500"/>
  </g>
</svg>
