<svg xmlns="http://www.w3.org/2000/svg" width="39.319" height="34.403" viewBox="0 0 39.319 34.403">
  <g id="payment" transform="translate(0 -32.008)">
    <path id="Path_4624" data-name="Path 4624" d="M36.861,127.992H2.457A2.461,2.461,0,0,0,0,130.449v22.117a2.46,2.46,0,0,0,2.457,2.457h34.4a2.458,2.458,0,0,0,2.457-2.457V130.449A2.46,2.46,0,0,0,36.861,127.992Z" transform="translate(0 -88.613)" fill="#2196f3"/>
    <rect id="Rectangle_2681" data-name="Rectangle 2681" width="39.319" height="7.372" transform="translate(0 44.294)" fill="#455a64"/>
    <g id="Group_2553" data-name="Group 2553" transform="translate(4.915 39.379)">
      <path id="Path_4625" data-name="Path 4625" d="M70.144,354.449H65.229a1.229,1.229,0,1,1,0-2.457h4.915a1.229,1.229,0,1,1,0,2.457Z" transform="translate(-64 -334.79)" fill="#fafafa"/>
      <path id="Path_4626" data-name="Path 4626" d="M246.117,140.146v-9.7a2.46,2.46,0,0,0-2.457-2.457H224v2.457c0,7.7,2.929,12.383,10.459,16.718a3.692,3.692,0,0,0,3.664,0C241.848,145.022,244.443,142.788,246.117,140.146Z" transform="translate(-211.713 -127.992)" fill="#fafafa"/>
    </g>
    <path id="Path_4627" data-name="Path 4627" d="M274.915,35.794l-8.6-3.686a1.233,1.233,0,0,0-.971,0l-8.6,3.686A1.226,1.226,0,0,0,256,36.922v4.915c0,6.76,2.5,10.712,9.218,14.582a1.235,1.235,0,0,0,1.224,0c6.719-3.861,9.218-7.812,9.218-14.582V36.922A1.224,1.224,0,0,0,274.915,35.794Z" transform="translate(-236.341 0)" fill="#009688"/>
    <path id="Path_4628" data-name="Path 4628" d="M323.689,136.658h-.052a1.233,1.233,0,0,1-.971-.546l-2.457-3.686a1.228,1.228,0,1,1,2.045-1.361l1.526,2.288,3.863-4.831a1.229,1.229,0,1,1,1.919,1.536l-4.915,6.144A1.239,1.239,0,0,1,323.689,136.658Z" transform="translate(-295.428 -88.678)" fill="#fafafa"/>
  </g>
</svg>
