<svg xmlns="http://www.w3.org/2000/svg" width="72.877" height="61.373" viewBox="0 0 72.877 61.373">
  <g id="profile_card" transform="translate(0 -40.793)">
    <path id="Path_4656" data-name="Path 4656" d="M59.5,121H6.405A6.412,6.412,0,0,0,0,127.405v37.008a6.412,6.412,0,0,0,6.405,6.405H59.5a6.412,6.412,0,0,0,6.405-6.405V127.405A6.412,6.412,0,0,0,59.5,121Z" transform="translate(0 -68.652)" fill="#f5f0eb"/>
    <path id="Path_4657" data-name="Path 4657" d="M258.475,121H232v49.818h26.475a6.412,6.412,0,0,0,6.405-6.405V127.405A6.412,6.412,0,0,0,258.475,121Z" transform="translate(-198.978 -68.652)" fill="#dad0cb"/>
    <circle id="Ellipse_71" data-name="Ellipse 71" cx="17.005" cy="17.005" r="17.005" transform="translate(38.868 40.793)" fill="#6c6c6c"/>
    <path id="Path_4658" data-name="Path 4658" d="M392.142,41,392,41V74.875l.142,0a16.938,16.938,0,0,0,0-33.877Z" transform="translate(-336.203 -0.039)" fill="#404040"/>
    <path id="Path_4659" data-name="Path 4659" d="M350.409,132.1a2.135,2.135,0,0,1-1.91-1.18l-2.277-4.555a2.135,2.135,0,0,1,3.819-1.91l.817,1.635,3.6-4.324a2.135,2.135,0,1,1,3.28,2.734l-5.694,6.832a2.135,2.135,0,0,1-1.64.768Z" transform="translate(-296.748 -68.652)" fill="#b9dd39"/>
    <path id="Path_4660" data-name="Path 4660" d="M246.522,381.27H235.135a2.135,2.135,0,0,1,0-4.27h11.387a2.135,2.135,0,0,1,0,4.27Z" transform="translate(-199.835 -288.214)" fill="#404040"/>
    <path id="Path_4661" data-name="Path 4661" d="M243.106,317.27h-7.971a2.135,2.135,0,1,1,0-4.27h7.971a2.135,2.135,0,1,1,0,4.27Z" transform="translate(-199.835 -233.323)" fill="#404040"/>
    <path id="Path_4662" data-name="Path 4662" d="M80.8,305.8H67.135A2.135,2.135,0,0,1,65,303.661v-5.694a8.967,8.967,0,1,1,17.935,0v5.694A2.135,2.135,0,0,1,80.8,305.8Z" transform="translate(-55.748 -212.74)" fill="#ff712f"/>
    <path id="Path_4663" data-name="Path 4663" d="M134.832,305.8a2.135,2.135,0,0,0,2.135-2.135v-5.694A8.978,8.978,0,0,0,128,289v16.8Z" transform="translate(-109.781 -212.74)" fill="#ff4c04"/>
    <path id="Path_4664" data-name="Path 4664" d="M80.829,224.657a7.829,7.829,0,1,1,7.829-7.829A7.837,7.837,0,0,1,80.829,224.657Z" transform="translate(-62.609 -144.127)" fill="#fed2a4"/>
    <path id="Path_4665" data-name="Path 4665" d="M135.829,216.829A7.837,7.837,0,0,0,128,209v15.657A7.837,7.837,0,0,0,135.829,216.829Z" transform="translate(-109.781 -144.127)" fill="#ffbd86"/>
  </g>
</svg>
