<svg xmlns="http://www.w3.org/2000/svg" width="85.5" height="80" viewBox="0 0 85.5 80">
  <g id="Group_39999" data-name="Group 39999" transform="translate(-70 -179.935)">
    <g id="Group_21" data-name="Group 21" transform="translate(70 180)">
      <path id="Path_78170" data-name="Path 78170" d="M39,0C60.539,0,78,17.685,78,39.5S60.539,79,39,79,0,61.315,0,39.5,17.461,0,39,0Z" transform="translate(0.5 -0.065)" fill="#defaff"/>
      <g id="user" transform="translate(0 0)">
        <g id="Group_20" data-name="Group 20" transform="translate(0 0)">
          <path id="Path_19" data-name="Path 19" d="M39.351,26.331a39.35,39.35,0,0,0-30.43,64.3c.86-6.885,7.737-12.709,17.38-15.467a18.792,18.792,0,0,0,25.857.238c9.727,3,16.456,9.163,16.677,16.327a39.341,39.341,0,0,0-29.484-65.4Zm0,49.448a14.057,14.057,0,0,1-6.981-1.886A17.811,17.811,0,0,1,23.818,58.3c0-9.636,6.968-17.475,15.533-17.475S54.884,48.668,54.884,58.3A17.766,17.766,0,0,1,46.1,74.02,14.025,14.025,0,0,1,39.351,75.779Z" transform="translate(0 -26.331)" fill="#3ec4de"/>
        </g>
      </g>
    </g>
    <g id="Group_23546" data-name="Group 23546" transform="translate(124.504 229.374)">
      <g id="Group_23545" data-name="Group 23545" transform="translate(0 0)">
        <circle id="Ellipse_308" data-name="Ellipse 308" cx="15" cy="15" r="15" transform="translate(-0.004 -0.439)" fill="#3ec4de" stroke="#defaff" stroke-width="2"/>
      </g>
      <path id="Path_21137" data-name="Path 21137" d="M41.279,34.473a.534.534,0,0,0,1.069,0Zm-4.5,5.572a.534.534,0,0,0,0-1.069Zm2.519-1.069a.534.534,0,1,0,0,1.069Zm5.038,1.069a.534.534,0,0,0,0-1.069Zm-1.985-3.053a.534.534,0,0,0-1.069,0ZM41.279,42.03a.534.534,0,0,0,1.069,0Zm1.069-7.557V30.236H41.279v4.237Zm-5.305-.8a2.214,2.214,0,0,1-2.214,2.214v1.069a3.282,3.282,0,0,0,3.282-3.282Zm-2.214,2.214a2.214,2.214,0,0,1-2.214-2.214H31.546a3.282,3.282,0,0,0,3.282,3.282Zm-2.214-2.214a2.214,2.214,0,0,1,2.214-2.214V30.389a3.282,3.282,0,0,0-3.282,3.282Zm2.214-2.214a2.214,2.214,0,0,1,2.214,2.214h1.069a3.282,3.282,0,0,0-3.282-3.282Zm7.519-1.221a2.708,2.708,0,0,0-.49-1.529,2.337,2.337,0,0,0-1.991-.952v1.069a1.275,1.275,0,0,1,1.124.508,1.642,1.642,0,0,1,.289.9Zm-2.481-2.481H38.722v1.069h1.145Zm-1.145,0c.022,0,.011,0-.04-.014a1.18,1.18,0,0,1-.179-.08,1.921,1.921,0,0,1-.434-.322l-.756.756A2.988,2.988,0,0,0,38,28.6a1.63,1.63,0,0,0,.726.221Zm-.653-.416a3.332,3.332,0,0,0-.618-.556,2.628,2.628,0,0,0-1.477-.4V27.45a1.568,1.568,0,0,1,.893.228,2.524,2.524,0,0,1,.446.417Zm-9.691,2.9a1.642,1.642,0,0,1,.289-.9,1.275,1.275,0,0,1,1.124-.508V27.755a2.337,2.337,0,0,0-1.991.952,2.708,2.708,0,0,0-.49,1.529Zm1.412-1.412h1.145V27.755H29.79Zm1.145,0a1.629,1.629,0,0,0,.726-.221,2.988,2.988,0,0,0,.683-.508l-.756-.756a1.92,1.92,0,0,1-.434.322,1.183,1.183,0,0,1-.179.08c-.052.017-.063.014-.04.014Zm1.408-.729a2.524,2.524,0,0,1,.447-.417,1.568,1.568,0,0,1,.893-.228V26.381a2.628,2.628,0,0,0-1.477.4,3.335,3.335,0,0,0-.618.556Zm4.431,10.882H29.79v1.069h6.985Zm-6.985,0a1.642,1.642,0,0,1-.9-.289,1.275,1.275,0,0,1-.508-1.124H27.309a2.337,2.337,0,0,0,.952,1.991,2.708,2.708,0,0,0,1.529.49ZM33.684,27.45h2.29V26.381h-2.29ZM28.378,37.564V30.236H27.309v7.328Zm10.916,2.481h5.038V38.976H39.294Zm1.985-3.053V42.03h1.069V36.992Z" transform="translate(-20.058 -19.724)" fill="rgba(255,255,255,0.87)"/>
    </g>
  </g>
</svg>
