<svg xmlns="http://www.w3.org/2000/svg" xmlns:xlink="http://www.w3.org/1999/xlink" width="378.919" height="66.099" viewBox="0 0 378.919 66.099">
  <defs>
    <linearGradient id="linear-gradient" x1="-0.423" y1="1.029" x2="1.933" y2="-0.19" gradientUnits="objectBoundingBox">
      <stop offset="0.35" stop-color="#29abe2"/>
      <stop offset="1"/>
    </linearGradient>
    <linearGradient id="linear-gradient-2" x1="-0.066" y1="0.993" x2="1.646" y2="-0.334" gradientUnits="objectBoundingBox">
      <stop offset="0.351" stop-color="#ee5076"/>
      <stop offset="1"/>
    </linearGradient>
  </defs>
  <g id="Group_39709" data-name="Group 39709" transform="translate(-848.026 -285.683)">
    <path id="Path_21053" data-name="Path 21053" d="M848.037,320.414q0-11.507-.007-23.013a16.222,16.222,0,0,1,.59-4.961A5.482,5.482,0,0,1,853,288.416a22.286,22.286,0,0,1,4.146-.449c7.113-.042,14.226-.059,21.339.01a49.444,49.444,0,0,1,7.085.535c9.464,1.467,14.7,8.8,14.8,16.59a20.425,20.425,0,0,1-.59,5.383,15.133,15.133,0,0,1-7.44,9.656,31.639,31.639,0,0,1-5.392,2.258,4.131,4.131,0,0,0-1.126.516.744.744,0,0,0-.032.724,7.614,7.614,0,0,0,1.155,1.188c6.207,5.267,10.37,11.968,13.578,19.338a11.275,11.275,0,0,1,.663,1.978,5.34,5.34,0,0,1-4.691,6.6,7.261,7.261,0,0,1-7.542-3.4c-2.111-3.283-4.132-6.623-6.19-9.94-1.544-2.486-3.078-4.98-4.631-7.461a23.232,23.232,0,0,0-3.8-4.437,9.267,9.267,0,0,0-4.788-2.416,26.451,26.451,0,0,0-7.083-.245A1.674,1.674,0,0,0,861.3,325.9c-.062.972-.137,1.946-.14,2.919-.014,5.161,0,10.321-.015,15.481a20.893,20.893,0,0,1-.17,3.337,5.744,5.744,0,0,1-3.661,4.723c-2.516,1-5.741.418-7.334-1.441a7.3,7.3,0,0,1-1.257-2.138,13.7,13.7,0,0,1-.7-4.939c.026-7.253.01-14.505.01-21.758Q848.037,321.251,848.037,320.414ZM861.2,306.235h.018c0,2.5-.013,5.01.008,7.515a1.291,1.291,0,0,0,1.26,1.379c5.008-.008,10.019.016,15.025-.1a13.352,13.352,0,0,0,5.589-1.559,7.1,7.1,0,0,0,3.947-5.983c.049-.413.01-.835.034-1.252a7.922,7.922,0,0,0-6.283-7.82,25.476,25.476,0,0,0-5.784-.743c-3.759.042-7.518,0-11.277,0-.416,0-.832.046-1.247.079a1.427,1.427,0,0,0-1.284,1.383C861.189,301.5,861.2,303.869,861.2,306.235Z" transform="translate(0 -1.066)" fill="#56aec3"/>
    <path id="Path_21054" data-name="Path 21054" d="M995.816,351.732a30.883,30.883,0,0,1-10.892-1.58,35.768,35.768,0,0,1-6.082-2.756,24.832,24.832,0,0,1-9.658-10.18,36.356,36.356,0,0,1-3.955-13.131,46.556,46.556,0,0,1,.065-11.258,34,34,0,0,1,3.958-12.7,27.178,27.178,0,0,1,18.712-13.548,38.211,38.211,0,0,1,20.635,1.147,26.506,26.506,0,0,1,16.6,16.014,34.98,34.98,0,0,1,2.159,8.493,43.167,43.167,0,0,1-1.879,20.625c-3.526,9.638-10.266,15.684-20.3,18.056A40.1,40.1,0,0,1,995.816,351.732Zm-17.364-33.19c0,1.251-.044,2.5.009,3.754a23.431,23.431,0,0,0,3.159,10.7,15.114,15.114,0,0,0,3.981,4.768,16.908,16.908,0,0,0,16.928,2.534,15.513,15.513,0,0,0,8.227-6.724,23.032,23.032,0,0,0,2.648-6.1,34.225,34.225,0,0,0,.05-17.323,22.226,22.226,0,0,0-2.387-5.763,16.077,16.077,0,0,0-9.253-7.339,20.842,20.842,0,0,0-6.6-.714,15.27,15.27,0,0,0-11.447,5.149,20.166,20.166,0,0,0-4.341,7.989A26.569,26.569,0,0,0,978.452,318.542Z" transform="translate(-55.458 0)" fill="#56aec3"/>
    <path id="Path_21055" data-name="Path 21055" d="M1162.038,318.424a37.419,37.419,0,0,1-2.376,15.174,26.526,26.526,0,0,1-15.941,16.12,28.2,28.2,0,0,1-10.2,2.014c-2.23-.01-4.465.058-6.689-.076a29.149,29.149,0,0,1-11.993-3.342,26.819,26.819,0,0,1-12.752-14.389,39.594,39.594,0,0,1-2.714-13.875,42.169,42.169,0,0,1,2.391-15.6c3.73-10,10.972-15.834,21.341-17.944a38.934,38.934,0,0,1,15.782.115,28.1,28.1,0,0,1,15.459,8.569,28.7,28.7,0,0,1,5.924,10.473,31.941,31.941,0,0,1,1.766,9.84C1162.05,316.613,1162.038,317.729,1162.038,318.424Zm-13.328.6c0-1.391.11-2.792-.022-4.17a25.139,25.139,0,0,0-3.1-10.3,16.02,16.02,0,0,0-6.88-6.479,18.289,18.289,0,0,0-9.744-1.682,15.454,15.454,0,0,0-12.248,6.931,24.127,24.127,0,0,0-3.245,7.63,35.455,35.455,0,0,0-.8,9.531,30.81,30.81,0,0,0,1.666,8.984,18.141,18.141,0,0,0,2.955,5.486,15.182,15.182,0,0,0,8.022,5.717,18.014,18.014,0,0,0,9.057.412,16.825,16.825,0,0,0,8.34-4.423,20.392,20.392,0,0,0,5.1-8.962A25.891,25.891,0,0,0,1148.709,319.027Z" transform="translate(-119.243 -0.031)" fill="#56aec3"/>
    <path id="Path_21056" data-name="Path 21056" d="M1491.224,351.865q-9.418,0-18.838,0-1.674,0-3.347-.07a8.3,8.3,0,0,1-3.218-.843,6.393,6.393,0,0,1-3.015-8.519,18.953,18.953,0,0,1,2.339-3.45c3.193-3.874,6.45-7.7,9.676-11.544q6.049-7.214,12.089-14.435,5.11-6.091,10.231-12.173c.446-.532.846-1.1,1.257-1.663.225-.306,0-.979-.341-1.009-.965-.084-1.932-.207-2.9-.21q-10.884-.027-21.768-.011a19.319,19.319,0,0,1-4.157-.349,4.69,4.69,0,0,1-3.031-6.912,5.58,5.58,0,0,1,1.382-1.526,5.782,5.782,0,0,1,3.113-1.118c.971-.084,1.951-.072,2.928-.072q16.117-.007,32.234,0a21.435,21.435,0,0,1,4.578.349,5.609,5.609,0,0,1,4.611,4.8,8.943,8.943,0,0,1-1.262,6.822,45.36,45.36,0,0,1-3.259,4.347q-8.312,9.958-16.685,19.864-5.531,6.558-11.1,13.083a18.215,18.215,0,0,0-1.585,1.943c-.481.762-1.728,1.354-1.092,2.435.454.773,1.521.414,2.316.415q13.605.03,27.21.014c.977,0,1.954-.009,2.931.014a10.531,10.531,0,0,1,1.665.136c3.432.634,4.815,3.253,3.8,6.555a3.716,3.716,0,0,1-1.809,2.209,6.049,6.049,0,0,1-2.772.861c-1.115.032-2.232.055-3.348.056Q1500.644,351.871,1491.224,351.865Z" transform="translate(-291.369 -1.078)" fill="#56aec3"/>
    <path id="Path_21057" data-name="Path 21057" d="M1301.821,350.1a2.169,2.169,0,0,1-1.823,1.838,5.373,5.373,0,0,1-.976.153,41.22,41.22,0,0,1-5.146-.132c-.328-.037-.654-.083-.979-.144a2.792,2.792,0,0,1-2.582-2.584,22.549,22.549,0,0,1-.279-3.747q.028-6.44.033-12.878,0-4.506-.022-9.016v-.344c-.006-1.04-.009-2.081-.015-3.121a21.471,21.471,0,0,0-.46-4.723,18.824,18.824,0,0,0-.789-2.591c-.073-.206-.156-.408-.242-.608a10.221,10.221,0,0,0-3.008-4.112c-.463-.371-.9-.78-1.359-1.154a13.392,13.392,0,0,0-9.428-2.9,13.054,13.054,0,0,0-8.267,3.373c-.249.221-.492.442-.752.647a10.337,10.337,0,0,0-3.013,4.106,17.115,17.115,0,0,0-1.467,6.126c-.044.923-.068,1.851-.068,2.774q0,10.7,0,21.4c0,1.384.015,2.774-.028,4.158-.028.856-.135,1.709-.242,2.559a4.359,4.359,0,0,1-.267.948,2.207,2.207,0,0,1-1.332,1.381,6.028,6.028,0,0,1-1.136.325,27.634,27.634,0,0,1-6.122.237c-1.872-.1-2.594-.856-2.771-2.7a13.019,13.019,0,0,1-.028-1.384q.018-2.379.055-4.754.074-5.45.156-10.895h-.058c0-2.974.012-5.944-.007-8.915-.009-1.715-.076-3.434-.1-5.149a24.094,24.094,0,0,1,2.412-10.92,28.944,28.944,0,0,1,3.7-6.07,25.2,25.2,0,0,1,9.759-7.252,26.089,26.089,0,0,1,11.165-2.09h0c.6.018,1.209.055,1.817.116a25.671,25.671,0,0,1,16.305,7.7,22.3,22.3,0,0,1,3.769,5.073,35.321,35.321,0,0,1,2.446,5.4,23.285,23.285,0,0,1,1.246,7.583c0,1.651-.1,3.3-.1,4.953q-.019,8.618,0,17.235c.012,2.639.095,5.282.147,7.921A10.291,10.291,0,0,1,1301.821,350.1Z" transform="translate(-190.354 -2.963)" fill="#ee5076"/>
    <path id="Path_21058" data-name="Path 21058" d="M1390.474,332.742c.034,5.029.068,9.983.1,14.936a17.758,17.758,0,0,1-.021,1.782,5.592,5.592,0,0,1-.317,1.338,1.8,1.8,0,0,1-1.106,1.068,4.093,4.093,0,0,1-1.549.293c-1.453-.01-2.906.007-4.358-.054a12.089,12.089,0,0,1-2.149-.327,2.56,2.56,0,0,1-1.961-1.779,6.388,6.388,0,0,1-.32-1.541c-.066-.988-.074-1.98-.074-2.97q0-11.493.011-22.985a49.322,49.322,0,0,0-.285-5.338,16.419,16.419,0,0,0-1.517-5.3,13.9,13.9,0,0,0-2.72-3.867,12.733,12.733,0,0,0-8.643-3.876,18.629,18.629,0,0,0-4.341.252,13.3,13.3,0,0,0-6.422,3.334c-.646.565-1.245,1.183-1.874,1.766-.324.3-.621.127-.773-.213-.081-.181-.178-.354-.259-.535-.214-.483-.437-.962-.631-1.453a23.746,23.746,0,0,0-3.172-5.691,5.34,5.34,0,0,1-.877-1.542,1.686,1.686,0,0,1,.033-1.159,3.852,3.852,0,0,1,1.364-1.659,24.771,24.771,0,0,1,6.385-3.541,26.325,26.325,0,0,1,28.945,7.074,22.43,22.43,0,0,1,2.133,2.851,27.875,27.875,0,0,1,4.338,11.588,22.029,22.029,0,0,1,.129,2.767C1390.533,322.909,1390.5,327.863,1390.474,332.742Z" transform="translate(-236.792 -2.975)" fill="#56aec3"/>
    <path id="Path_21059" data-name="Path 21059" d="M1306.421,347.727c2.251-.035,2.039-.2,2.05,1.924,0,.522-.021,1.044-.038,1.566a.637.637,0,0,1-.511.516c-.26.022-.52.059-.78.055-2.994-.041-2.581.431-2.615-2.568,0-.326.015-.652.032-.978a.552.552,0,0,1,.492-.512C1305.508,347.72,1305.965,347.727,1306.421,347.727Z" transform="translate(-216.579 -29.427)" fill="#ee5076"/>
    <path id="Path_21060" data-name="Path 21060" d="M1306.329,362.05c-.4,0-.792.008-1.188,0a.557.557,0,0,1-.546-.477c-.007-.987-.011-1.974.018-2.96a.405.405,0,0,1,.41-.356q1.482-.016,2.964-.007a.56.56,0,0,1,.486.531q0,1.384-.026,2.769a.577.577,0,0,1-.536.488c-.528.011-1.054,0-1.581,0Z" transform="translate(-216.609 -34.425)" fill="#ee5076"/>
    <path id="Path_21061" data-name="Path 21061" d="M1294.25,360.138c.036-.519.06-1.039.118-1.555.011-.1.154-.19.248-.269a.3.3,0,0,1,.18-.059c.913,0,1.825-.008,2.738,0a.557.557,0,0,1,.5.509c.007.914.011,1.828,0,2.742a.7.7,0,0,1-.595.67c-.26.025-.521.038-.782.052-.587.032-1.174.066-1.761.089a.569.569,0,0,1-.6-.609c-.009-.522,0-1.045,0-1.568Z" transform="translate(-211.704 -34.428)" fill="#ee5076"/>
    <path id="Path_21062" data-name="Path 21062" d="M1294.142,349.632c.04-.519.07-1.039.132-1.555.012-.1.153-.185.247-.263a.3.3,0,0,1,.181-.062c.915-.007,1.83-.014,2.744-.008a.536.536,0,0,1,.547.454q.011,1.469,0,2.937a.575.575,0,0,1-.486.526c-.913.013-1.826.021-2.74.014a.642.642,0,0,1-.576-.668c-.011-.458,0-.916,0-1.374Z" transform="translate(-211.653 -29.443)" fill="#ee5076"/>
    <path id="Path_21063" data-name="Path 21063" d="M1371.323,360.222c0-2.1-.1-2.107,2.031-2.083.394,0,.788.041,1.18.075a.668.668,0,0,1,.534.5c.021.395.043.79.042,1.185-.008,2.419.218,2.248-2.2,2.329-.329.011-.657.045-.986.057a.659.659,0,0,1-.546-.488c-.021-.262-.042-.525-.05-.787S1371.323,360.486,1371.323,360.222Z" transform="translate(-248.268 -34.374)" fill="#ee5076"/>
    <path id="Path_21064" data-name="Path 21064" d="M1385.546,350.056c0,.328.009.658,0,.985-.02.566-.271.819-.858.844-.525.023-1.052.027-1.577.024-1.407-.01-1.438-.027-1.433-1.435.011-2.965-.32-2.623,2.617-2.638a2.515,2.515,0,0,1,.777.085c.159.052.373.227.392.369.078.583.09,1.175.126,1.764Z" transform="translate(-253.178 -29.485)" fill="#ee5076"/>
    <path id="Path_21065" data-name="Path 21065" d="M1381.668,359.886c0-.395-.007-.789,0-1.183a.593.593,0,0,1,.522-.5c.854-.015,1.708-.031,2.562-.018a.7.7,0,0,1,.767.718c.013.855.012,1.71,0,2.564a.677.677,0,0,1-.649.617c-.328.019-.657.031-.985.032C1381.428,362.121,1381.65,362.241,1381.668,359.886Z" transform="translate(-253.172 -34.395)" fill="#ee5076"/>
    <path id="Path_21066" data-name="Path 21066" d="M1375.058,349.867c0,.456.01.912,0,1.368a.637.637,0,0,1-.638.608c-.585.033-1.172.054-1.757.059-1.354.013-1.451-.219-1.445-1.461,0-.587,0-1.174.016-1.761.017-.562.273-.8.856-.823.326-.012.651-.012.978-.012C1375.176,347.839,1375.1,347.755,1375.058,349.867Z" transform="translate(-248.218 -29.491)" fill="#ee5076"/>
    <path id="Path_21067" data-name="Path 21067" d="M1388.908,351.945a4.047,4.047,0,0,1-1.326.215c-1.452-.013-2.906.006-4.358-.055a12.22,12.22,0,0,1-2.148-.325,2.566,2.566,0,0,1-1.961-1.78,6.353,6.353,0,0,1-.319-1.54c-.067-.989-.074-1.98-.077-2.971q0-11.49.012-22.983a49.115,49.115,0,0,0-.285-5.34,16.335,16.335,0,0,0-1.516-5.3,13.943,13.943,0,0,0-2.719-3.867,12.743,12.743,0,0,0-8.642-3.876,18.687,18.687,0,0,0-4.342.252,13.3,13.3,0,0,0-6.421,3.336c-.647.565-1.245,1.181-1.875,1.765-.325.3-.62.129-.773-.212-.08-.181-.178-.356-.257-.537-.215-.482-.439-.961-.633-1.452a23.822,23.822,0,0,0-3.17-5.693,5.277,5.277,0,0,1-.878-1.54,1.675,1.675,0,0,1,.034-1.16,3.818,3.818,0,0,1,1.362-1.657,24.933,24.933,0,0,1,6.384-3.542,25.294,25.294,0,0,1,10.244-1.7,39.567,39.567,0,0,1,12.417,20.848,44.982,44.982,0,0,1,1.264,10.435v.344q.019,4.507.022,9.017,0,6.436-.034,12.878a22.5,22.5,0,0,0,.279,3.747,2.791,2.791,0,0,0,2.581,2.584c.325.062.65.107.979.144a41.243,41.243,0,0,0,5.147.133,5.374,5.374,0,0,0,.976-.154Z" transform="translate(-236.792 -2.977)" fill="url(#linear-gradient)"/>
    <path id="Path_21068" data-name="Path 21068" d="M1308.324,351.945a4.043,4.043,0,0,1-1.326.215c-1.451-.013-2.906.006-4.358-.055a12.215,12.215,0,0,1-2.149-.325,2.566,2.566,0,0,1-1.961-1.78,6.347,6.347,0,0,1-.319-1.54c-.068-.989-.074-1.98-.077-2.971q0-11.49.012-22.983a49.3,49.3,0,0,0-.285-5.34,16.363,16.363,0,0,0-1.516-5.3,13.939,13.939,0,0,0-2.72-3.867,12.744,12.744,0,0,0-8.642-3.876,18.693,18.693,0,0,0-4.343.252,13.3,13.3,0,0,0-6.42,3.336c-.648.565-1.246,1.181-1.875,1.765-.325.3-.62.129-.773-.212-.08-.181-.178-.356-.258-.537-.215-.482-.438-.961-.632-1.452a23.792,23.792,0,0,0-3.17-5.693,5.289,5.289,0,0,1-.878-1.54,1.678,1.678,0,0,1,.034-1.16,3.81,3.81,0,0,1,1.363-1.657,24.91,24.91,0,0,1,6.383-3.542,25.293,25.293,0,0,1,10.245-1.7,39.574,39.574,0,0,1,12.417,20.848,45.048,45.048,0,0,1,1.265,10.435v.344q.018,4.507.021,9.017,0,6.436-.034,12.878a22.472,22.472,0,0,0,.28,3.747,2.791,2.791,0,0,0,2.581,2.584c.325.062.651.107.979.144a41.258,41.258,0,0,0,5.147.133,5.368,5.368,0,0,0,.976-.154Z" transform="translate(-198.561 -2.977)" fill="url(#linear-gradient-2)"/>
  </g>
</svg>
